Coordinates
version=1
nRows=16
nColumns=42
inDegrees=yes

Units are S.I. units (second, meters, Newtons, ...)
If the header above contains a line with 'inDegrees', this indicates whether rotational values are in degrees (yes) or radians (no).

endheader
time	pelvis_tilt	pelvis_list	pelvis_rotation	pelvis_tx	pelvis_ty	pelvis_tz	hip_flexion_r	hip_adduction_r	hip_rotation_r	knee_angle_r	knee_adduction_r	knee_angle_r_beta	ankle_angle_r	subtalar_angle_r	mtp_angle_r	hip_flexion_l	hip_adduction_l	hip_rotation_l	knee_angle_l	knee_adduction_l	knee_angle_l_beta	ankle_angle_l	subtalar_angle_l	mtp_angle_l	lumbar_extension	lumbar_bending	lumbar_rotation	arm_flex_r	arm_add_r	arm_rot_r	elbow_flex_r	pro_sup_r	wrist_flex_r	wrist_dev_r	arm_flex_l	arm_add_l	arm_rot_l	elbow_flex_l	pro_sup_l	wrist_flex_l	wrist_dev_l
      1.62000000	     14.57143415	     -4.68890294	     -1.76175710	      0.72838006	      0.88538932	     -0.24268259	     -4.08869364	      9.81086963	    -11.35326717	     19.39533337	     -6.22623851	      0.33851243	     13.80074504	     12.16326669	     -7.50232135	     -8.18727736	     -8.12021545	    -16.18487587	     68.19161637	    -10.84760794	      1.19016823	     -0.02226357	    -16.46518853	     -7.50232135	    -27.68956055	      2.84926894	     -3.47803320	     -0.57375353	     -2.11558437	    -22.54403778	     36.83393445	     90.00000001	      0.00000000	      0.00000000	     -0.24776716	     -4.81276924	    -14.52750970	     43.66898174	     90.00000001	      0.00000000	      0.00000000
      1.63000000	     14.70004824	     -4.15363598	     -1.94298690	      0.73886017	      0.88716781	     -0.24100993	     -5.39431089	      9.30259845	    -11.18436146	     18.61675532	     -6.16635058	      0.32492368	     14.16403312	     12.58078923	     -7.50228403	     -6.44389339	     -7.48703941	    -16.03821317	     69.12653968	    -11.09914695	      1.20648572	      1.28754715	    -16.23852363	     -7.50228403	    -27.86620952	      2.12232800	     -2.99053020	     -0.49060129	     -2.04929394	    -22.18068018	     37.57960363	     90.00000001	      0.00000000	      0.00000000	     -0.17545137	     -4.81419495	    -14.55239752	     43.45764516	     90.00000001	      0.00000000	      0.00000000
      1.64000000	     15.00053448	     -3.70547750	     -2.24638549	      0.74952625	      0.88902298	     -0.23941070	     -6.97914943	      8.79602866	    -11.02206658	     17.65803772	     -6.01006636	      0.30819090	     14.53881295	     13.91361333	     -7.50219750	     -5.07203414	     -6.95388772	    -15.63553223	     69.69962398	    -10.74825795	      1.21648793	      3.05489282	    -15.67242529	     -7.50219750	    -28.19862190	      1.46937676	     -2.32850524	     -0.72563334	     -2.21893912	    -20.93295754	     38.88125121	     90.00000001	      0.00000000	      0.00000000	     -0.06201230	     -4.71146173	    -14.67423517	     43.07401758	     90.00000001	      0.00000000	      0.00000000
      1.65000000	     14.97606224	     -3.21408723	     -2.44182396	      0.75986565	      0.89025874	     -0.23777142	     -8.05197461	      8.31488374	    -11.13578701	     16.93969899	     -6.03017443	      0.29565352	     14.85668611	     14.15398954	     -7.50216494	     -3.20657041	     -6.39399807	    -15.55889118	     70.11456493	    -10.85453031	      1.22373001	      4.10189326	    -15.32633085	     -7.50216494	    -28.19245278	      0.80909064	     -1.83366727	     -0.60550638	     -2.17593332	    -20.64258840	     39.51140785	     90.00000001	      0.00000000	      0.00000000	     -0.09474570	     -4.70792188	    -14.71658103	     43.04415709	     90.00000001	      0.00000000	      0.00000000
      1.66000000	     15.19056850	     -2.72103770	     -2.65843573	      0.77040233	      0.89158131	     -0.23647036	     -9.45622746	      7.67377924	    -11.58493956	     16.04395186	     -5.84801579	      0.28001978	     15.38467944	     16.40435781	     -7.50199170	     -1.77043104	     -5.76661039	    -15.30107095	     70.11297011	    -10.62197862	      1.22370218	      5.90421435	    -14.67855892	     -7.50199170	    -28.41592182	      0.17899824	     -1.39996281	     -0.82798899	     -2.47474770	    -18.96002567	     40.89180681	     90.00000001	      0.00000000	      0.00000000	     -0.11096722	     -4.61061409	    -14.97327290	     42.89633056	     90.00000001	      0.00000000	      0.00000000
      1.67000000	     15.03937602	     -2.34463794	     -2.92662026	      0.78077425	      0.89229488	     -0.23490479	    -10.37778455	      7.28105413	    -11.75824637	     15.32983438	     -5.85305167	      0.26755608	     15.68330520	     16.56787256	     -7.50196292	      0.08425859	     -5.33410670	    -15.16440255	     69.94163588	    -10.39855262	      1.22071183	      6.86790036	    -14.46942025	     -7.50196292	    -28.25151851	     -0.35080518	     -0.76418067	     -0.76471386	     -2.47408719	    -18.85924556	     41.57200940	     90.00000001	      0.00000000	      0.00000000	     -0.19531577	     -4.57171973	    -15.02544059	     42.82925190	     90.00000001	      0.00000000	      0.00000000
      1.68000000	     15.18932201	     -2.01563907	     -3.12570178	      0.79132863	      0.89316611	     -0.23360087	    -11.83531794	      6.89644123	    -11.70223212	     14.21100675	     -5.64727613	      0.24802886	     15.90663540	     17.92641809	     -7.50189449	      1.43271633	     -4.90329716	    -14.51435301	     69.39780459	     -9.63595886	      1.21122018	      8.36586964	    -14.42698018	     -7.50189449	    -28.37857089	     -0.78446508	     -0.19018289	     -0.91922195	     -2.64057755	    -18.24228335	     42.97011832	     90.00000001	      0.00000000	      0.00000000	     -0.14245385	     -4.45682510	    -15.26940920	     42.54096997	     90.00000001	      0.00000000	      0.00000000
      1.69000000	     15.07558674	     -1.74490122	     -3.25528321	      0.80175169	      0.89345003	     -0.23240092	    -12.88426828	      6.58200773	    -11.93125389	     13.31429462	     -5.48831271	      0.23237828	     16.14904333	     18.72374244	     -7.50184627	      3.12747745	     -4.54750867	    -14.18911672	     68.69615831	     -9.23634411	      1.19897415	      9.39468061	    -14.51934678	     -7.50184627	    -28.23539035	     -1.10594236	      0.26246436	     -0.90695858	     -2.73310056	    -17.80523866	     43.94889417	     90.00000001	      0.00000000	      0.00000000	     -0.25727466	     -4.35159126	    -15.42049991	     42.45975823	     90.00000001	      0.00000000	      0.00000000
      1.70000000	     15.08652957	     -1.56223682	     -3.39391776	      0.81233497	      0.89366349	     -0.23114951	    -14.10616035	      6.33659247	    -12.37563194	     12.33260667	     -5.33251761	      0.21524459	     16.24487252	     19.98937199	     -7.50178503	      4.53646064	     -4.30883852	    -13.66663214	     67.65128614	     -8.51209037	      1.18073769	     10.14903330	    -14.76823983	     -7.50178503	    -28.21506098	     -1.35117107	      0.77434694	     -0.95629465	     -2.96348834	    -17.20154584	     44.99960924	     90.00000001	      0.00000000	      0.00000000	     -0.37022469	     -4.29797291	    -15.67171076	     42.36694667	     90.00000001	      0.00000000	      0.00000000
      1.71000000	     14.97119193	     -1.43369242	     -3.45825006	      0.82288400	      0.89351083	     -0.23009421	    -15.18347832	      6.16037902	    -12.82574626	     11.39431049	     -5.11956332	      0.19886823	     16.34062395	     21.06924073	     -7.50173775	      6.04893355	     -4.08570452	    -13.21355587	     66.36087261	     -7.93138817	      1.15821572	     10.80212798	    -15.09404508	     -7.50173775	    -28.06320244	     -1.47993777	      1.16834757	     -0.92127973	     -3.12896686	    -16.79332415	     45.96341706	     90.00000001	      0.00000000	      0.00000000	     -0.53858213	     -4.21645896	    -15.85590730	     42.27852968	     90.00000001	      0.00000000	      0.00000000
      1.72000000	     15.03755274	     -1.30081724	     -3.54876516	      0.83360386	      0.89338464	     -0.22901832	    -16.42085028	      5.90131959	    -13.84066461	     10.49932809	     -4.89241163	      0.18324784	     16.25929082	     23.05856575	     -7.50165618	      7.19667017	     -3.85529575	    -12.62247962	     64.71228259	     -7.06854883	      1.12944240	     11.00948515	    -15.58284753	     -7.50165618	    -28.09001847	     -1.63419242	      1.57202674	     -0.88916858	     -3.37239872	    -16.15911217	     46.85481794	     90.00000001	      0.00000000	      0.00000000	     -0.74052656	     -4.12187849	    -16.14490439	     42.28301618	     90.00000001	      0.00000000	      0.00000000
      1.73000000	     14.87194281	     -1.28243187	     -3.50167762	      0.84421978	      0.89273958	     -0.22811737	    -17.46749029	      5.85887062	    -14.45494985	      9.55144724	     -4.60853578	      0.16670420	     16.33009615	     24.14070756	     -7.50161551	      8.60031570	     -3.72847916	    -12.22425327	     62.89675915	     -6.51829051	      1.09775554	     11.48096427	    -15.78475079	     -7.50161551	    -27.88632036	     -1.58481111	      1.85961640	     -0.81610024	     -3.51225014	    -15.92169378	     47.74625448	     90.00000001	      0.00000000	      0.00000000	     -0.93609778	     -4.06214351	    -16.29841467	     42.13846189	     90.00000001	      0.00000000	      0.00000000
      1.74000000	     14.88969206	     -1.29725449	     -3.46898234	      0.85500966	      0.89216617	     -0.22716186	    -18.75604679	      5.81847120	    -15.24289403	      8.53218976	     -4.27169640	      0.14891480	     16.12084025	     25.61324639	     -7.50157277	      9.61065282	     -3.62448693	    -11.70569049	     60.70434371	     -5.74128296	      1.05949067	     11.64347846	    -15.97531670	     -7.50157277	    -27.87245930	     -1.52225776	      2.14616421	     -0.73054445	     -3.69106092	    -15.55348380	     48.58123009	     90.00000001	      0.00000000	      0.00000000	     -1.16592581	     -3.99692845	    -16.53287947	     42.04660454	     90.00000001	      0.00000000	      0.00000000
      1.75000000	     14.99811011	     -1.06200099	     -3.52129617	      0.86581547	      0.89156252	     -0.22651033	    -19.81482061	      5.21604035	    -17.33050301	      8.18126139	     -3.70920881	      0.14278995	     16.05854556	     28.71215713	     -7.50145246	     10.36049240	     -3.15691832	    -11.54008658	     58.06015133	     -5.13549522	      1.01334080	     11.44444194	    -16.21394601	     -7.50145246	    -27.95083951	     -1.72056432	      2.31111870	     -0.54689192	     -3.92979924	    -14.99858003	     49.21266739	     90.00000001	      0.00000000	      0.00000000	     -1.46085266	     -3.90384124	    -16.88523564	     42.17675115	     90.00000001	      0.00000000	      0.00000000
      1.76000000	     14.91382983	     -1.25776088	     -3.38661042	      0.87652192	      0.89051876	     -0.22565782	    -20.96349846	      5.43550535	    -18.01990368	      7.28300997	     -3.36809530	      0.12711250	     16.02756685	     29.75173231	     -7.50141227	     11.28351195	     -3.26314831	    -11.10767946	     55.39884705	     -4.34025506	      0.96689228	     11.55348606	    -15.98209957	     -7.50141227	    -27.86067827	     -1.41538066	      2.51585042	     -0.39144087	     -4.05858147	    -14.83450587	     49.96948938	     90.00000001	      0.00000000	      0.00000000	     -1.66799865	     -3.83900916	    -17.04678009	     41.92406192	     90.00000001	      0.00000000	      0.00000000
      1.77000000	     14.78483457	     -1.47133952	     -3.26459556	      0.88711322	      0.88931369	     -0.22481060	    -21.92288377	      5.71406426	    -18.72271667	      6.64835567	     -3.21406403	      0.11603570	     15.90407476	     30.43402313	     -7.50138309	     12.13616565	     -3.33738444	    -10.93377276	     52.43234220	     -3.74628811	      0.91511701	     11.53347463	    -15.59456280	     -7.50138309	    -27.74984306	     -1.09925189	      2.73771450	     -0.17913715	     -4.20686543	    -14.61166963	     50.50391334	     90.00000001	      0.00000000	      0.00000000	     -1.86993312	     -3.77955596	    -17.22395851	     41.82112834	     90.00000001	      0.00000000	      0.00000000
